<?xml version="1.0" encoding="UTF-8" standalone="no"?>
<!-- Created with Inkscape (http://www.inkscape.org/) -->

<svg
   xmlns:dc="http://purl.org/dc/elements/1.1/"
   xmlns:cc="http://creativecommons.org/ns#"
   xmlns:rdf="http://www.w3.org/1999/02/22-rdf-syntax-ns#"
   xmlns:svg="http://www.w3.org/2000/svg"
   xmlns="http://www.w3.org/2000/svg"
   xmlns:sodipodi="http://sodipodi.sourceforge.net/DTD/sodipodi-0.dtd"
   xmlns:inkscape="http://www.inkscape.org/namespaces/inkscape"
   width="210mm"
   height="297mm"
   viewBox="0 0 210 297"
   version="1.1"
   id="svg8"
   inkscape:version="0.92.1 r15371"
   sodipodi:docname="SunFlower.svg">
  <defs
     id="defs2">
    <clipPath
       id="clipEmfPath1"
       clipPathUnits="userSpaceOnUse">
      <path
         id="path12"
         d="  M 0,0   L 86.64708,0   L 86.64708,94.770243   L 0,94.770243   L 0,0   z" />
    </clipPath>
    <pattern
       y="0"
       x="0"
       height="6"
       width="6"
       patternUnits="userSpaceOnUse"
       id="EMFhbasepattern" />
    <clipPath
       id="clipEmfPath1-4"
       clipPathUnits="userSpaceOnUse">
      <path
         id="path417"
         d="  M 0,0   L 28.921602,0   L 28.921602,31.550839   L 0,31.550839   L 0,0   z" />
    </clipPath>
    <pattern
       y="0"
       x="0"
       height="6"
       width="6"
       patternUnits="userSpaceOnUse"
       id="EMFhbasepattern-4" />
    <clipPath
       id="clipEmfPath1-9"
       clipPathUnits="userSpaceOnUse">
      <path
         id="path486"
         d="  M 0,0   L 128.22466,0   L 128.22466,140.1218   L 0,140.1218   L 0,0   z" />
    </clipPath>
    <pattern
       y="0"
       x="0"
       height="6"
       width="6"
       patternUnits="userSpaceOnUse"
       id="EMFhbasepattern-40" />
  </defs>
  <sodipodi:namedview
     id="base"
     pagecolor="#ffffff"
     bordercolor="#666666"
     borderopacity="1.0"
     inkscape:pageopacity="0.0"
     inkscape:pageshadow="2"
     inkscape:zoom="1.1229167"
     inkscape:cx="315.18962"
     inkscape:cy="589.09936"
     inkscape:document-units="mm"
     inkscape:current-layer="layer1"
     showgrid="false"
     inkscape:window-width="1366"
     inkscape:window-height="705"
     inkscape:window-x="-8"
     inkscape:window-y="-8"
     inkscape:window-maximized="1" />
  <metadata
     id="metadata5">
    <rdf:RDF>
      <cc:Work
         rdf:about="">
        <dc:format>image/svg+xml</dc:format>
        <dc:type
           rdf:resource="http://purl.org/dc/dcmitype/StillImage" />
        <dc:title></dc:title>
      </cc:Work>
    </rdf:RDF>
  </metadata>
  <g
     inkscape:label="Layer 1"
     inkscape:groupmode="layer"
     id="layer1">
    <g
       id="g18"
       clip-path="url(#clipEmfPath1)"
       transform="matrix(0.26458333,0,0,0.26458333,108.58886,132.87208)" />
    <g
       id="g492"
       clip-path="url(#clipEmfPath1-9)"
       transform="matrix(0.26458333,0,0,0.26458333,74.436094,142.37874)" />
    <g
       id="g1357"
       transform="translate(-29.227128,-67.858998)">
      <path
         transform="matrix(0.62820127,0,0,0.62820127,75.652556,160.87315)"
         inkscape:connector-curvature="0"
         style="fill:#edd400;fill-opacity:1;fill-rule:evenodd;stroke:none"
         clip-path="url(#clipEmfPath1-9)"
         d="M 64.200458,69.664326 C 64.508902,69.091501 137.56611,64.905473 121.70327,100.94938 100.02405,133.90885 63.892013,70.237151 64.200458,69.664326 Z"
         id="path494" />
      <path
         transform="matrix(0.62820127,0,0,0.62820127,75.652556,160.87315)"
         inkscape:connector-curvature="0"
         style="fill:#000000;fill-opacity:1;fill-rule:evenodd;stroke:none"
         clip-path="url(#clipEmfPath1-9)"
         d="m 64.597029,70.193088 c -0.04406,0.04406 -0.132191,0.08813 -0.176254,0.08813 0.04406,0 0.04406,0 0.13219,0 0.132191,-0.04406 0.308445,-0.04406 0.572825,-0.08813 0.528762,-0.04406 1.321904,-0.08813 2.2913,-0.176254 1.982856,-0.08813 4.802917,-0.13219 8.107676,-0.08813 6.609519,0.08813 15.245957,0.616889 23.353633,2.2913 8.019551,1.674411 15.598461,4.450409 20.092941,9.033009 4.4504,4.450409 5.99263,10.663357 2.11504,19.431987 l 0.61689,0.26438 -0.57283,-0.35251 c -5.24355,8.01955 -11.3243,10.09054 -17.44912,8.8127 C 97.380241,108.08766 90.946976,103.24068 85.174664,97.424305 79.358287,91.519801 74.202863,84.557775 70.545596,79.093906 68.69493,76.317909 67.240836,73.938482 66.27144,72.220007 c -0.528761,-0.881269 -0.881269,-1.542221 -1.14565,-2.026919 -0.08813,-0.264381 -0.176254,-0.440635 -0.26438,-0.528762 0,-0.08813 -0.04406,-0.08813 -0.04406,-0.13219 0.04406,0.04406 0.04406,0.13219 0.04406,0.176254 l -0.660952,-0.04406 z m -1.057523,-0.528762 c 0,0.08813 0,0.176254 0.04406,0.308445 0,0.04406 0.04406,0.13219 0.08813,0.220317 0.04406,0.13219 0.176254,0.352508 0.308444,0.616888 0.220318,0.484698 0.616889,1.189714 1.14565,2.070983 1.01346,1.718475 2.467554,4.141965 4.318219,6.917963 3.701331,5.596059 8.900819,12.602149 14.805322,18.550715 5.948567,6.036693 12.602149,10.971803 19.123539,12.337773 6.69765,1.41003 13.30717,-0.88127 18.85916,-9.34146 l 0.0441,-0.0441 v -0.0881 c 4.09787,-9.253314 2.46752,-16.039086 -2.3354,-20.886067 -4.71479,-4.758853 -12.51402,-7.667041 -20.79795,-9.385516 -8.195804,-1.718475 -16.920368,-2.247237 -23.57395,-2.335364 -3.348823,-0.04406 -6.168884,0 -8.195803,0.08813 -1.01346,0.08813 -1.806602,0.132191 -2.379427,0.176254 -0.264381,0.04406 -0.528762,0.04406 -0.660952,0.08813 -0.08813,0 -0.176254,0.04406 -0.264381,0.04406 -0.13219,0.04406 -0.220317,0.08813 -0.308444,0.176253 l -0.220317,0.176254 z"
         id="path496" />
      <path
         transform="matrix(0.62820127,0,0,0.62820127,75.652556,160.87315)"
         inkscape:connector-curvature="0"
         style="fill:#edd400;fill-opacity:1;fill-rule:evenodd;stroke:none"
         clip-path="url(#clipEmfPath1-9)"
         d="M 64.200458,69.664326 C 63.539506,69.70839 23.353633,8.5042473 62.526046,4.2300919 101.87471,6.5213917 64.86141,69.664326 64.200458,69.664326 Z"
         id="path498" />
      <path
         transform="matrix(0.62820127,0,0,0.62820127,75.652556,160.87315)"
         inkscape:connector-curvature="0"
         style="fill:#000000;fill-opacity:1;fill-rule:evenodd;stroke:none"
         clip-path="url(#clipEmfPath1-9)"
         d="m 64.420775,69.047438 c 0.08813,0.04406 0.13219,0.08813 0.176254,0.13219 0,-0.04406 -0.04406,-0.04406 -0.04406,-0.08813 -0.08813,-0.13219 -0.220317,-0.26438 -0.396571,-0.484698 C 63.84795,68.166169 63.407315,67.505217 62.878554,66.668011 61.821031,65.037663 60.322873,62.614173 58.736589,59.750048 55.519957,53.977736 51.642372,46.222567 49.042628,38.335208 46.486948,30.58004 45.120981,22.648617 46.795392,16.43567 48.469803,10.354913 53.096466,5.9485668 62.614173,4.8910438 l -0.08813,-0.6609519 -0.04406,0.6609519 c 9.605834,0.5728249 14.40875,4.7588534 16.391606,10.7514832 1.982856,6.124821 1.01346,14.100307 -1.14565,21.987666 -2.203173,8.019549 -5.640122,15.906908 -8.592374,21.855475 -1.454094,2.952251 -2.775998,5.419805 -3.789457,7.13828 -0.484698,0.837206 -0.88127,1.542221 -1.189714,1.982855 -0.13219,0.220318 -0.264381,0.396572 -0.352507,0.484698 0,0.04406 -0.04406,0.08813 -0.04406,0.08813 0,0 0.08813,-0.04406 0.13219,-0.08813 l 0.308445,0.572825 z m 0.08813,1.189713 c 0.08813,-0.04406 0.176254,-0.08813 0.220317,-0.176253 0.04406,-0.04406 0.08813,-0.08813 0.176254,-0.176254 0.08813,-0.132191 0.220317,-0.308444 0.352508,-0.572825 0.308444,-0.484698 0.749078,-1.14565 1.233776,-2.026919 1.01346,-1.762539 2.379427,-4.230092 3.833521,-7.226407 2.996315,-5.992631 6.433265,-14.01218 8.680501,-22.075793 2.247237,-8.151739 3.216633,-16.391606 1.101587,-22.780807 C 77.99232,8.7245646 72.704705,4.1860285 62.57011,3.5691401 H 62.52605 62.48199 C 52.391451,4.6707265 47.324153,9.4736434 45.561615,16.083162 c -1.806602,6.477328 -0.396571,14.673131 2.247236,22.692681 2.599744,7.931422 6.477329,15.774717 9.782088,21.591094 1.630348,2.908188 3.084442,5.331678 4.186029,7.050153 0.528761,0.837206 1.013459,1.498158 1.321903,1.938792 0.176254,0.264381 0.308444,0.440635 0.396571,0.572825 0.08813,0.08813 0.132191,0.132191 0.176254,0.176254 0.08813,0.08813 0.176254,0.13219 0.308444,0.176254 l 0.264381,0.13219 z"
         id="path500" />
      <path
         transform="matrix(0.62820127,0,0,0.62820127,75.652556,160.87315)"
         inkscape:connector-curvature="0"
         style="fill:#edd400;fill-opacity:1;fill-rule:evenodd;stroke:none"
         clip-path="url(#clipEmfPath1-9)"
         d="M 64.200458,69.664326 C 64.552965,70.237151 31.637563,135.62732 8.3720569,103.81351 -9.341453,68.606803 63.84795,69.135565 64.200458,69.664326 Z"
         id="path502" />
      <path
         transform="matrix(0.62820127,0,0,0.62820127,75.652556,160.87315)"
         inkscape:connector-curvature="0"
         style="fill:#000000;fill-opacity:1;fill-rule:evenodd;stroke:none"
         clip-path="url(#clipEmfPath1-9)"
         d="m 63.539506,69.796517 c 0,-0.08813 0,-0.176254 0,-0.220317 0,0 0,0.04406 -0.04406,0.08813 -0.04406,0.132191 -0.13219,0.308445 -0.220317,0.572825 -0.220317,0.484698 -0.572825,1.189714 -1.013459,2.070983 -0.925333,1.762538 -2.247237,4.230092 -3.965712,7.094217 C 54.947132,85.042473 50.144215,92.26888 44.636283,98.437764 39.172414,104.56258 33.00353,109.71801 26.790582,111.34836 20.709825,112.93464 14.540941,111.1721 8.9008184,103.41693 l -0.5287615,0.39658 0.572825,-0.26438 C 4.626663,94.956751 5.8604399,88.69974 10.046468,83.98495 14.364687,79.182033 21.723285,76.053528 29.654707,73.982545 37.71832,71.867499 46.26663,70.898103 52.876149,70.501532 c 3.304759,-0.220317 6.124821,-0.308444 8.107676,-0.308444 0.969396,0 1.762539,0.04406 2.2913,0.04406 0.264381,0 0.484698,0.04406 0.616888,0.04406 0.04406,0 0.08813,0 0.08813,0 -0.04406,0 -0.08813,0 -0.13219,-0.04406 l 0.352508,-0.572825 z m 1.013459,-0.705016 c -0.13219,-0.04406 -0.176253,-0.04406 -0.308444,-0.08813 -0.04406,0 -0.13219,-0.04406 -0.220317,-0.04406 -0.176254,0 -0.396571,-0.04406 -0.660952,-0.04406 -0.572825,0 -1.365967,-0.04406 -2.379427,-0.04406 -2.026919,0 -4.84698,0.08813 -8.195803,0.308444 C 46.13444,69.5762 37.453939,70.589659 29.346263,72.704705 21.15046,74.819751 13.527481,78.12451 9.0770723,83.103681 4.4944727,88.215042 3.2166324,95.088941 7.7551685,104.12195 l 0.044064,0.0441 v 0.0441 c 5.9926305,8.15174 12.6902755,10.13459 19.2997935,8.41612 6.477329,-1.71848 12.910593,-7.00609 18.506653,-13.307167 5.596059,-6.257011 10.443039,-13.527481 13.835925,-19.255731 1.718475,-2.864124 3.084442,-5.375741 4.009775,-7.13828 0.440634,-0.925332 0.793142,-1.630348 1.013459,-2.159109 0.132192,-0.264381 0.220319,-0.484698 0.264381,-0.616889 0.04406,-0.08813 0.08813,-0.176253 0.08813,-0.220317 0.04406,-0.13219 0.04406,-0.264381 0.04406,-0.352507 l -0.08813,-0.308445 z"
         id="path504" />
      <path
         transform="matrix(0.62820127,0,0,0.62820127,75.652556,160.87315)"
         inkscape:connector-curvature="0"
         style="fill:#fce94f;fill-opacity:1;fill-rule:evenodd;stroke:none"
         clip-path="url(#clipEmfPath1-9)"
         d="m 64.200458,69.664326 c 0.660952,0 40.802762,61.204144 1.630348,65.434234 -39.348668,-2.24724 -2.2913,-65.39017 -1.630348,-65.434234 z"
         id="path506" />
      <path
         transform="matrix(0.62820127,0,0,0.62820127,75.652556,160.87315)"
         inkscape:connector-curvature="0"
         style="fill:#000000;fill-opacity:1;fill-rule:evenodd;stroke:none"
         clip-path="url(#clipEmfPath1-9)"
         d="m 63.98014,70.281215 c -0.08813,0 -0.176253,-0.04406 -0.176253,-0.08813 0,0 0,0.04406 0.04406,0.08813 0.08813,0.08813 0.220317,0.264381 0.352508,0.484698 0.308444,0.440634 0.749078,1.057523 1.321903,1.894729 1.057523,1.674411 2.511618,4.053838 4.141965,6.962026 3.216633,5.772313 7.050154,13.483418 9.649898,21.370772 2.599744,7.79924 3.965711,15.6866 2.247236,21.89954 -1.674411,6.08076 -6.257011,10.53117 -15.774718,11.54463 l 0.04406,0.66095 0.04406,-0.66095 c -9.56177,-0.52876 -14.364687,-4.71479 -16.347543,-10.70742 -2.026919,-6.12482 -1.057523,-14.10031 1.14565,-22.03173 2.203173,-7.975486 5.640123,-15.906908 8.548311,-21.811411 1.498158,-2.952252 2.820061,-5.419806 3.833521,-7.138281 0.484698,-0.881269 0.881269,-1.542221 1.189713,-1.982855 0.132191,-0.220317 0.220317,-0.396571 0.308444,-0.528762 0.04406,-0.04406 0.04406,-0.04406 0.08813,-0.08813 -0.04406,0.04406 -0.08813,0.08813 -0.13219,0.08813 l -0.308444,-0.572825 z m -0.08813,-1.189714 c -0.13219,0.04406 -0.176253,0.08813 -0.26438,0.176254 -0.04406,0.04406 -0.08813,0.132191 -0.132191,0.220318 -0.08813,0.13219 -0.220317,0.308444 -0.396571,0.528761 -0.308444,0.484698 -0.705015,1.189713 -1.189713,2.070983 -1.01346,1.718474 -2.379427,4.230092 -3.877584,7.226407 -2.952252,5.99263 -6.433265,13.968116 -8.636438,22.075796 -2.247236,8.15174 -3.216632,16.3916 -1.14565,22.73674 2.159109,6.52139 7.446724,11.05993 17.537256,11.63275 h 0.08813 0.04406 c 10.046468,-1.10158 15.113765,-5.9045 16.920367,-12.51402 1.762539,-6.43326 0.396571,-14.62907 -2.247236,-22.64862 C 77.948256,92.621388 74.070672,84.822156 70.809976,78.961716 69.179628,76.053528 67.725534,73.630038 66.623948,71.955626 66.051123,71.118421 65.610488,70.413405 65.302044,69.972771 65.12579,69.752453 64.9936,69.5762 64.86141,69.444009 c -0.04406,-0.08813 -0.08813,-0.13219 -0.132191,-0.176254 -0.08813,-0.13219 -0.220317,-0.176254 -0.308444,-0.220317 l -0.264381,-0.08813 z"
         id="path508" />
      <path
         transform="matrix(0.62820127,0,0,0.62820127,75.652556,160.87315)"
         inkscape:connector-curvature="0"
         style="fill:#fce94f;fill-opacity:1;fill-rule:evenodd;stroke:none"
         clip-path="url(#clipEmfPath1-9)"
         d="M 64.200458,69.664326 C 63.84795,69.135565 96.763353,3.7453939 120.02886,35.515147 137.74237,70.721849 64.552965,70.237151 64.200458,69.664326 Z"
         id="path510" />
      <path
         transform="matrix(0.62820127,0,0,0.62820127,75.652556,160.87315)"
         inkscape:connector-curvature="0"
         style="fill:#000000;fill-opacity:1;fill-rule:evenodd;stroke:none"
         clip-path="url(#clipEmfPath1-9)"
         d="m 64.86141,69.5762 c 0,0.04406 0,0.13219 -0.04406,0.220317 0.04406,-0.04406 0.04406,-0.08813 0.04406,-0.132191 0.04406,-0.13219 0.13219,-0.308444 0.26438,-0.528761 0.220318,-0.484698 0.528762,-1.189713 1.01346,-2.070983 0.881269,-1.806601 2.247236,-4.230091 3.921648,-7.094216 3.392886,-5.684186 8.151739,-12.86653 13.703735,-19.079477 5.463869,-6.124821 11.632753,-11.236182 17.845697,-12.86653 6.08076,-1.630348 12.24964,0.176254 17.88977,7.887359 l 0.52876,-0.396571 -0.57283,0.308444 c 4.27416,8.548311 3.08445,14.849385 -1.14565,19.520112 -4.27415,4.802917 -11.67681,7.975486 -19.608235,10.046468 -8.019549,2.070983 -16.611924,3.040379 -23.177379,3.481013 -3.304759,0.220317 -6.12482,0.264381 -8.107676,0.264381 -0.969396,0 -1.762538,0 -2.335363,-0.04406 -0.220317,0 -0.440635,0 -0.572825,0 -0.04406,-0.04406 -0.08813,-0.04406 -0.13219,-0.04406 0.04406,0 0.13219,0.04406 0.176253,0.04406 l -0.352507,0.572825 z m -1.01346,0.660951 c 0.08813,0.04406 0.176254,0.08813 0.264381,0.132191 0.08813,0 0.13219,0 0.264381,0 0.13219,0.04406 0.352507,0.04406 0.660951,0.04406 0.572825,0.04406 1.365968,0.04406 2.379427,0.04406 2.026919,0 4.84698,-0.04406 8.195803,-0.264381 6.653582,-0.440635 15.334083,-1.410031 23.44176,-3.525077 8.195807,-2.159109 15.774717,-5.419805 20.269187,-10.443039 4.53854,-5.067298 5.86044,-11.941197 1.32191,-20.974206 l -0.0441,-0.08813 -0.0441,-0.04406 c -5.99263,-8.15174 -12.69028,-10.134596 -19.29979,-8.372057 -6.477333,1.674411 -12.866534,6.962026 -18.506657,13.2631 -5.551995,6.257011 -10.398976,13.527482 -13.835925,19.299795 -1.674412,2.864125 -3.040379,5.331678 -3.965712,7.13828 -0.440634,0.881269 -0.793142,1.630348 -1.057523,2.115046 -0.08813,0.264381 -0.176253,0.484698 -0.26438,0.660952 -0.04406,0.08813 -0.04406,0.13219 -0.04406,0.220317 -0.04406,0.132191 -0.04406,0.220317 -0.04406,0.352508 l 0.04406,0.308444 z"
         id="path512" />
      <path
         transform="matrix(0.62820127,0,0,0.62820127,75.652556,160.87315)"
         inkscape:connector-curvature="0"
         style="fill:#fce94f;fill-opacity:1;fill-rule:evenodd;stroke:none"
         clip-path="url(#clipEmfPath1-9)"
         d="M 64.200458,69.664326 C 63.892013,70.237151 -9.2092626,74.467243 6.6976456,38.379272 28.332803,5.4638687 64.508902,69.091501 64.200458,69.664326 Z"
         id="path514" />
      <path
         transform="matrix(0.62820127,0,0,0.62820127,75.652556,160.87315)"
         inkscape:connector-curvature="0"
         style="fill:#000000;fill-opacity:1;fill-rule:evenodd;stroke:none"
         clip-path="url(#clipEmfPath1-9)"
         d="m 63.759823,69.179628 c 0.04406,-0.04406 0.13219,-0.08813 0.176254,-0.13219 0,0.04406 -0.04406,0.04406 -0.08813,0.04406 -0.13219,0 -0.352508,0.04406 -0.572825,0.08813 -0.572825,0.04406 -1.321904,0.08813 -2.335363,0.132191 -1.982856,0.08813 -4.758854,0.176254 -8.107676,0.13219 C 46.26663,69.355882 37.630193,68.827121 29.522517,67.108646 21.458904,65.478298 13.924053,62.7023 9.3855165,58.119701 4.9791707,53.625228 3.4369497,47.41228 7.314534,38.643652 l -0.6168884,-0.26438 0.5728249,0.352507 C 12.514022,30.756293 18.550716,28.641247 24.7196,29.963151 c 6.301074,1.321904 12.734339,6.124821 18.506652,11.985261 5.816376,5.904503 10.927737,12.822466 14.629068,18.330398 1.806602,2.775998 3.260696,5.155425 4.274155,6.873899 0.484698,0.837206 0.881269,1.542221 1.101587,2.026919 0.13219,0.220318 0.220317,0.396572 0.26438,0.528762 0.04406,0.04406 0.04406,0.08813 0.04406,0.08813 0,0 0,-0.08813 0,-0.132191 h 0.660952 z m 1.101587,0.528762 c 0,-0.13219 0,-0.220317 -0.04406,-0.308444 -0.04406,-0.04406 -0.04406,-0.132191 -0.08813,-0.220318 -0.08813,-0.13219 -0.176254,-0.352507 -0.308444,-0.616888 -0.264381,-0.484698 -0.660952,-1.189713 -1.14565,-2.070983 -1.01346,-1.762538 -2.511618,-4.186028 -4.31822,-6.962026 C 55.211512,53.977736 50.012024,46.971646 44.151585,41.023079 38.203018,34.986385 31.549436,30.007215 24.98398,28.641247 18.286335,27.27528 11.72088,29.56658 6.1248206,38.026764 v 0.04406 l -0.044064,0.04406 C 2.026919,47.368217 3.657267,54.198053 8.4601839,59.045033 c 4.7147901,4.758854 12.4699581,7.667042 20.7538881,9.385517 8.239867,1.674411 16.920368,2.247236 23.618014,2.335363 3.348822,0.04406 6.168884,-0.04406 8.195803,-0.13219 1.013459,-0.04406 1.806602,-0.08813 2.335363,-0.176254 0.308444,0 0.528761,-0.04406 0.705015,-0.04406 0.08813,-0.04406 0.176254,-0.04406 0.220318,-0.08813 0.13219,0 0.220317,-0.04406 0.308444,-0.13219 l 0.264381,-0.220317 z"
         id="path516" />
    </g>
    <circle
       style="fill:#5c3566;fill-opacity:1;stroke:#000000;stroke-width:1.30373704;stroke-miterlimit:4;stroke-dasharray:none"
       id="path10"
       cx="86.753113"
       cy="136.77737"
       r="15.823761" />
    <text
       xml:space="preserve"
       style="font-style:normal;font-weight:normal;font-size:19.59045601px;line-height:1.25;font-family:sans-serif;letter-spacing:0px;word-spacing:0px;fill:#000000;fill-opacity:1;stroke:none;stroke-width:0.48976138"
       x="42.4785"
       y="201.40764"
       id="text1379"><tspan
         sodipodi:role="line"
         id="tspan1377"
         x="42.4785"
         y="201.40764"
         style="font-style:normal;font-variant:normal;font-weight:normal;font-stretch:normal;font-size:19.59045601px;font-family:'Segoe UI';-inkscape-font-specification:'Segoe UI, Normal';font-variant-ligatures:normal;font-variant-caps:normal;font-variant-numeric:normal;font-feature-settings:normal;text-align:start;writing-mode:lr-tb;text-anchor:start;stroke-width:0.48976138"><tspan
           style="font-style:normal;font-variant:normal;font-weight:bold;font-stretch:normal;font-size:19.59045601px;font-family:'Segoe UI';-inkscape-font-specification:'Segoe UI, Bold';font-variant-ligatures:normal;font-variant-caps:normal;font-variant-numeric:normal;font-feature-settings:normal;text-align:start;writing-mode:lr-tb;text-anchor:start;fill:#a40000;stroke-width:0.48976138"
           id="tspan1381">Sun</tspan><tspan
           style="font-style:normal;font-variant:normal;font-weight:600;font-stretch:normal;font-size:19.59045601px;font-family:'Segoe UI';-inkscape-font-specification:'Segoe UI, Semi-Bold';font-variant-ligatures:normal;font-variant-caps:normal;font-variant-numeric:normal;font-feature-settings:normal;text-align:start;writing-mode:lr-tb;text-anchor:start;fill:#000038;stroke-width:0.48976138"
           id="tspan1385">Flower</tspan></tspan></text>
  </g>
</svg>
